<?xml version="1.0" encoding="UTF-8"?>
<svg id="Layer_2" data-name="Layer 2" xmlns="http://www.w3.org/2000/svg" xmlns:xlink="http://www.w3.org/1999/xlink" viewBox="0 0 1033.35 744">
  <defs>
    <style>
      .cls-1 {
        fill: #ae9dbf;
      }

      .cls-1, .cls-2, .cls-3, .cls-4, .cls-5, .cls-6, .cls-7, .cls-8, .cls-9, .cls-10, .cls-11, .cls-12, .cls-13, .cls-14, .cls-15, .cls-16, .cls-17, .cls-18, .cls-19, .cls-20, .cls-21, .cls-22, .cls-23, .cls-24, .cls-25, .cls-26, .cls-27, .cls-28, .cls-29, .cls-30 {
        stroke-width: 0px;
      }

      .cls-2 {
        fill: #f23e6e;
      }

      .cls-3 {
        fill: #ece3fa;
      }

      .cls-4 {
        fill: url(#_Безымянный_градиент_2);
      }

      .cls-5 {
        fill: #e7dcfa;
      }

      .cls-6 {
        fill: url(#_Безымянный_градиент_42);
      }

      .cls-7 {
        fill: #3c5685;
      }

      .cls-8 {
        fill: #bf2251;
      }

      .cls-9 {
        fill: #4b6ba6;
      }

      .cls-10 {
        fill: #2a3d5e;
      }

      .cls-11 {
        fill: #1d3557;
      }

      .cls-12 {
        fill: url(#_Безымянный_градиент_42-3);
      }

      .cls-13 {
        fill: #457b9d;
      }

      .cls-14 {
        fill: #a8dadc;
      }

      .cls-15 {
        fill: #dadada;
      }

      .cls-16 {
        fill: #f6f6f6;
      }

      .cls-17, .cls-24 {
        fill: #fff;
      }

      .cls-18 {
        fill: url(#_Безымянный_градиент_3);
        mix-blend-mode: multiply;
      }

      .cls-19 {
        fill: #ededed;
      }

      .cls-20 {
        fill: #6c9fe0;
      }

      .cls-21 {
        fill: #878787;
      }

      .cls-22 {
        fill: #37bae6;
        opacity: .4;
      }

      .cls-23 {
        fill: #232e4d;
      }

      .cls-24 {
        opacity: .75;
      }

      .cls-25 {
        fill: #f1faee;
      }

      .cls-26 {
        fill: #8db5e8;
      }

      .cls-27 {
        fill: #b3cdee;
      }

      .cls-28 {
        fill: url(#_Безымянный_градиент_42-2);
      }

      .cls-31 {
        filter: url(#luminosity-noclip);
      }

      .cls-32 {
        mask: url(#mask-1);
      }

      .cls-33 {
        mask: url(#mask);
      }

      .cls-29 {
        fill: #367ad1;
      }

      .cls-30 {
        fill: #e63946;
      }
    </style>
    <linearGradient id="_Безымянный_градиент_42" data-name="Безымянный градиент 42" x1="444.37" y1="697.77" x2="444.37" y2="534.22" gradientUnits="userSpaceOnUse">
      <stop offset="0" stop-color="#2060b3"/>
      <stop offset="1" stop-color="#367ad1"/>
    </linearGradient>
    <linearGradient id="_Безымянный_градиент_42-2" data-name="Безымянный градиент 42" x1="870.71" y1="671.95" x2="870.71" y2="474.38" xlink:href="#_Безымянный_градиент_42"/>
    <filter id="luminosity-noclip" x="588.73" y="59.77" width="123.88" height="150.58" color-interpolation-filters="sRGB" filterUnits="userSpaceOnUse">
      <feFlood flood-color="#fff" result="bg"/>
      <feBlend in="SourceGraphic" in2="bg"/>
    </filter>
    <filter id="luminosity-noclip-2" x="588.73" y="-8564" width="123.88" height="32766" color-interpolation-filters="sRGB" filterUnits="userSpaceOnUse">
      <feFlood flood-color="#fff" result="bg"/>
      <feBlend in="SourceGraphic" in2="bg"/>
    </filter>
    <mask id="mask-1" x="588.73" y="-8564" width="123.88" height="32766" maskUnits="userSpaceOnUse"/>
    <linearGradient id="_Безымянный_градиент_3" data-name="Безымянный градиент 3" x1="691.82" y1="205.9" x2="608.59" y2="61.73" gradientUnits="userSpaceOnUse">
      <stop offset="0" stop-color="#fff"/>
      <stop offset="1" stop-color="#bfbfbf"/>
    </linearGradient>
    <mask id="mask" x="588.73" y="59.77" width="123.88" height="150.58" maskUnits="userSpaceOnUse">
      <g class="cls-31">
        <g class="cls-32">
          <path class="cls-18" d="m712.61,121.71c0-35.03-29.08-63.27-64.41-61.89-32.05,1.25-58.14,27.31-59.42,59.36-.52,13.05,3,25.25,9.42,35.44,9.37,14.9,14.73,31.97,14.73,49.58v.29c0,3.24,2.62,5.86,5.86,5.86h63.76c3.24,0,5.86-2.62,5.86-5.86v-.6c0-17.46,5.33-34.39,14.66-49.15,6.04-9.56,9.54-20.88,9.54-33.02Z"/>
        </g>
      </g>
    </mask>
    <linearGradient id="_Безымянный_градиент_2" data-name="Безымянный градиент 2" x1="691.82" y1="205.9" x2="608.59" y2="61.73" gradientUnits="userSpaceOnUse">
      <stop offset="0" stop-color="#a8dadc"/>
      <stop offset="1" stop-color="#fff"/>
    </linearGradient>
    <linearGradient id="_Безымянный_градиент_42-3" data-name="Безымянный градиент 42" x1="555.16" y1="371.6" x2="489.51" y2="371.6" xlink:href="#_Безымянный_градиент_42"/>
  </defs>
  <g id="Layer_1-2" data-name="Layer 1">
    <g>
      <path class="cls-26" d="m976.72,697.77c39.45-35.75,60.61-79.84,56-114.17-36.06-16.84-94.58-5.11-145.99,32.65-32.26,23.7-55.58,53.13-67.17,81.52h157.16Z"/>
      <path class="cls-16" d="m1018,598.93l-51.04,37.13,36.73,4.55c.67.08,1.27.42,1.69.96.42.53.6,1.2.52,1.87-.16,1.27-1.24,2.22-2.51,2.22-.11,0-.21,0-.31-.02,0,0-42.1-5.22-42.1-5.22l-78.81,57.34h-8.62l141.48-102.94c.44-.32.95-.49,1.49-.49.81,0,1.58.39,2.05,1.04.4.55.56,1.22.45,1.89-.11.67-.47,1.26-1.01,1.66Z"/>
      <ellipse class="cls-26" cx="460.14" cy="697.77" rx="201.02" ry="17.22"/>
      <path class="cls-20" d="m408.46,424.23c-23.63,35.01-21.04,95.51,9.99,151.24,31.03,55.73,81.09,89.8,123.3,88.15,23.63-35.01,21.04-95.51-9.99-151.24-31.03-55.73-81.09-89.8-123.3-88.15Z"/>
      <path class="cls-27" d="m541.75,666.52c-1.06,0-2.03-.57-2.54-1.49l-128.39-230.59c-.78-1.4-.28-3.17,1.13-3.95.43-.24.92-.37,1.41-.37,1.06,0,2.03.57,2.54,1.49l21.14,37.96,4.45-30.31c.21-1.42,1.45-2.48,2.88-2.48.14,0,.27,0,.41.03.77.11,1.45.52,1.92,1.14s.66,1.39.54,2.16l-5.55,37.81,102.6,184.27c.78,1.4.28,3.17-1.13,3.95-.43.24-.92.37-1.41.37Z"/>
      <path class="cls-27" d="m907.56,433.3c-39.79,1.06-86.88,37.73-115.98,94.5-29.09,56.77-31.37,116.41-9,149.33,39.79-1.06,86.88-37.73,115.98-94.5,29.09-56.77,31.37-116.41,9-149.33Z"/>
      <path class="cls-20" d="m819.41,344.29c-42.31,11.85-82.75,63.68-98.45,132.1-15.7,68.42-1.89,132.69,31.03,161.8,42.31-11.85,82.75-63.68,98.45-132.1,15.7-68.42,1.89-132.69-31.03-161.8Z"/>
      <path class="cls-27" d="m749.49,652.1c-.22,0-.44-.02-.65-.07-.76-.17-1.4-.63-1.81-1.29-.41-.66-.54-1.44-.37-2.19l58.72-256-14.86-21.49c-.44-.64-.61-1.41-.47-2.17.14-.76.57-1.43,1.21-1.87.49-.34,1.06-.52,1.65-.52.96,0,1.85.47,2.39,1.25l11.84,17.12,6.93-30.22c.31-1.33,1.47-2.26,2.83-2.26.22,0,.44.03.66.08.75.17,1.4.63,1.81,1.29.41.66.54,1.44.37,2.19l-21.77,94.89,44.7-24.39c.42-.23.91-.36,1.39-.36,1.07,0,2.04.58,2.55,1.52.37.68.46,1.47.24,2.21-.22.75-.71,1.36-1.4,1.73l-49.22,26.86-43.91,191.43c-.31,1.33-1.47,2.26-2.83,2.26Z"/>
      <g>
        <polygon class="cls-14" points="384.27 502.78 362.17 469.54 277.8 469.54 277.8 502.78 277.8 697.77 584.28 697.77 584.28 502.78 384.27 502.78"/>
        <rect class="cls-17" x="290.89" y="523.08" width="273.09" height="174.68"/>
        <path class="cls-13" d="m529.09,543.38H252.31c-7.64,0-13.22,7.23-11.27,14.62l36.76,139.76h306.49l-36.89-140.27c-2.19-8.31-9.7-14.11-18.3-14.11Z"/>
      </g>
      <g>
        <rect class="cls-14" x="870.19" y="354.11" width="59.86" height="343.65"/>
        <polygon class="cls-11" points="900.11 292.65 870.19 354.11 930.04 354.11 900.11 292.65"/>
        <polygon class="cls-10" points="909.71 312.35 900.11 292.65 890.52 312.35 909.71 312.35"/>
        <rect class="cls-17" x="883.77" y="354.11" width="1.99" height="343.65"/>
        <rect class="cls-17" x="914.47" y="354.11" width="1.99" height="343.65"/>
      </g>
      <path class="cls-6" d="m362.62,697.77c.48-25.08,19.05-43.25,20.45-59.9,2.09-24.93-12.08-43.31-15.11-65.81-2.67-19.81,10.82-43.67,35.46-36.55,26.67,7.71,24.74,34.62,42.1,51.04,12.61,11.92,50.95,23.35,64.8,49.55,9.53,18.04,8.13,41.69,15.8,61.67h-163.49Z"/>
      <ellipse class="cls-26" cx="757.67" cy="697.77" rx="255.3" ry="26.87"/>
      <path class="cls-28" d="m988.84,483.18c2.57-13-7.16-22.84-19.47-24.57-13.59-1.91-27.7,4.38-36.34,14.83-9.42,11.4-15.68,34.87-25.89,45.44-25.12,25.99-47.19,11.28-71.62,29.68-20.98,15.8-12.23,39.04-27.06,61.49-11.74,17.77-45.28,29.54-53.59,57.54-3.33,11.23-3.38,21.3-1.26,30.19h197.24c.92-4.3,1.37-8.88,1.31-13.74-.3-24.85-23.73-44.39-2.94-68.45,6.18-7.16,27.43-17.76,33.21-31.65,9.77-23.5-13.92-47.54-11.64-63.86,1.96-14.07,15.32-23.08,18.05-36.89Z"/>
      <path class="cls-2" d="m830.35,576.08h-352.8v4.98h2.4c5.18,0,6.21,11.25,6.21,24.69,0,12.7-1.22,24.69-6.62,24.69h-1.99v4.98h352.18c6.9,0,8.66-12.42,8.66-27.84,0-16.2-.94-31.5-8.04-31.5Z"/>
      <path class="cls-8" d="m679.9,576.08h-202.35v4.98h2.4c5.18,0,6.21,11.25,6.21,24.69,0,12.7-1.22,24.69-6.62,24.69h-1.99v4.98h201.72c6.37,0,8.47-11.06,8.47-28.92s-1.46-30.42-7.84-30.42Z"/>
      <path class="cls-15" d="m675.83,581.07h-195.88c5.18,0,6.21,11.25,6.21,24.69,0,12.55-1.19,24.38-6.42,24.67,47.92,0,182.42.01,195.69.01,5.4,0,6.62-11.98,6.62-24.69,0-13.43-1.03-24.69-6.21-24.69Z"/>
      <path class="cls-10" d="m806.88,570.6c-3.17,0-5.14-8.05-5.14-19.29,0-10.23,2.03-17.08,5.14-17.08h4.12v-5.48h-347.85c-3.66,0-7.64,6.94-7.64,23.67s4.42,23.67,8.15,23.67h347.34v-5.48h-4.12Z"/>
      <path class="cls-23" d="m806.88,570.6c-3.17,0-5.14-8.05-5.14-19.29,0-10.23,2.03-17.08,5.14-17.08h4.12v-5.48h-189.5v47.34h189.5v-5.48h-4.12Z"/>
      <path class="cls-17" d="m801.74,551.31c0-10.23,2.03-17.08,5.14-17.08h-340.77c-3.11,0-5.14,6.86-5.14,17.08,0,11.24,1.97,19.29,5.14,19.29h340.77c-3.17,0-5.14-8.05-5.14-19.29Z"/>
      <path class="cls-15" d="m801.74,551.31c0-10.23,2.03-17.08,5.14-17.08h-189.5c-3.11,0-5.14,6.86-5.14,17.08,0,11.24,1.97,19.29,5.14,19.29h189.5c-3.17,0-5.14-8.05-5.14-19.29Z"/>
      <g>
        <path class="cls-10" d="m855.66,692.03c-6.36,0-7.01-14.45-7.01-25.43,0-13.95.69-25.43,7.01-25.43h1.9v-5.74h-405.07c-4.72,0-8.71,11.31-8.71,31.17,0,16.77,2.35,31.17,8.71,31.17h405.07v-5.74h-1.9Z"/>
        <path class="cls-23" d="m855.66,692.03c-6.36,0-7.01-14.45-7.01-25.43,0-13.95.69-25.43,7.01-25.43h1.9v-5.74h-269.58c-4.72,0-8.71,11.31-8.71,31.17,0,16.77,2.36,31.17,8.71,31.17h269.58v-5.74h-1.9Z"/>
        <path class="cls-15" d="m848.65,666.59c0-13.95.69-25.43,7.01-25.43h-261.78c-6.32,0-8,11.48-8,25.43,0,10.98,1.64,25.43,8,25.43h261.78c-6.36,0-7.01-14.45-7.01-25.43Z"/>
        <path class="cls-17" d="m855.66,692.03h-222.69c-3.47-4.42-.4-15.56,12.61-19.56,54.03-16.6,140.94-21.01,203.08-8.02-.01.7-.01,1.42-.01,2.14,0,10.99.65,25.43,7.01,25.43Z"/>
        <path class="cls-21" d="m850.52,686.48h-227.7c-.07-.3-.12-.61-.17-.93h227.6c.08.32.17.62.27.93Z"/>
        <path class="cls-21" d="m849.25,680.01h-226.77c.03-.31.07-.62.12-.93h226.54c.03.31.06.62.1.93Z"/>
      </g>
      <path class="cls-17" d="m662.8,630.44c-39.23,0-142.79-.01-183.07-.02,5.23-.29,6.43-12.13,6.43-24.67,0-4.12-.1-8.05-.38-11.5,50.57-6.12,119.27-5.62,153.98,9.55,14.7,6.42,25.23,16.53,23.05,26.64Z"/>
      <path class="cls-21" d="m680.45,624.15c-.09.32-.17.63-.26.93h-195.89c.09-.3.18-.61.26-.93h195.89Z"/>
      <path class="cls-21" d="m681.52,617.86c-.03.31-.07.62-.1.93h-195.88c.04-.3.07-.61.1-.93h195.88Z"/>
      <path class="cls-21" d="m681.94,611.58c-.01.31-.02.62-.04.93h-195.88c.02-.31.03-.62.04-.93h195.88Z"/>
      <rect class="cls-21" x="486.16" y="605.29" width="195.88" height=".93"/>
      <path class="cls-7" d="m490.84,469.54h341.82v6.53h-2.11c-5.54,0-6.52,13.57-6.52,23.07,0,9.5.97,23.07,6.52,23.07h2.11v6.53h-341.82c-7.13,0-7.57-17.42-7.57-29.6,0-12.18.43-29.6,7.57-29.6Z"/>
      <path class="cls-9" d="m609.14,469.54h223.52v6.53h-2.11c-5.54,0-6.52,13.57-6.52,23.07,0,9.5.97,23.07,6.52,23.07h2.11v6.53h-223.52c-7.13,0-9.27-17.42-9.27-29.6,0-12.18,2.14-29.6,9.27-29.6Z"/>
      <path class="cls-19" d="m612.82,476.07h217.73c-5.54,0-6.52,13.57-6.52,23.07,0,9.5.97,23.07,6.52,23.07h-217.73c-5.56,0-6.52-13.57-6.52-23.07,0-9.5.99-23.07,6.52-23.07Z"/>
      <path class="cls-2" d="m799.45,416.87h-335.78v5.81h2.08c5.44,0,6.41,12.08,6.41,20.52,0,8.45-.95,20.52-6.41,20.52h-2.08v5.81h335.78c7.01,0,7.43-15.5,7.43-26.33,0-10.84-.43-26.34-7.43-26.34Z"/>
      <path class="cls-26" d="m403.48,697.77h116.4c-4.98-29.55-38.81-63.33-86.88-83.23-48.35-20.01-96.44-19.91-120.72-2.22,4.67,29.68,38.62,63.74,86.97,83.75,1.41.58,2.82,1.15,4.23,1.7Z"/>
      <path class="cls-26" d="m691.29,738.05c0,3.29,32.77,5.95,73.19,5.95s73.19-2.66,73.19-5.95-32.77-5.95-73.19-5.95-73.19,2.66-73.19,5.95Z"/>
      <path class="cls-8" d="m671.42,416.87h-207.74v5.81h2.08c5.44,0,6.41,12.08,6.41,20.52,0,8.45-.95,20.52-6.41,20.52h-2.08v5.81h207.74c7.01,0,9.11-15.5,9.11-26.33,0-10.84-2.1-26.34-9.11-26.34Z"/>
      <path class="cls-15" d="m667.81,422.68h-202.06c5.44,0,6.41,12.08,6.41,20.52,0,8.45-.95,20.52-6.41,20.52h202.06c5.46,0,6.41-12.07,6.41-20.52,0-8.45-.97-20.52-6.41-20.52Z"/>
      <path class="cls-13" d="m815.91,576.08h-26.57c7.1,0,8.04,15.3,8.04,31.5s-1.77,27.84-8.66,27.84h26.57c6.9,0,8.66-12.42,8.66-27.84,0-16.2-.94-31.5-8.04-31.5Z"/>
      <path class="cls-20" d="m901.23,292.65h-2.23c0-50.93-4.73-92.24-14.05-122.79-7.7-25.22-18.56-43.28-32.28-53.69-17.04-12.92-35.21-11.54-47.45-8.12-8.43,2.36-16.44,7.06-23.81,13.46,12.23,14.67,19.62,38.41,20.35,65.69.7,26.09-4.88,52.36-14.57,68.56-8.36,13.98-18.94,19.8-30.59,16.82-14.67-3.74-22.9-18.95-23.17-42.82-.27-22.98,6.99-50.79,19.42-74.4,7.38-14.03,16.02-25.55,25.41-34.1-.08-.09-.15-.17-.23-.26-13.54-14.74-35.54-24.49-63.63-28.21-23.92-3.17-52.07-1.92-79.26,3.51-48.62,9.72-104,35.4-151.95,70.48-3.51,2.57-6.92,5.15-10.24,7.74,4.48,26.33-8.4,60.71-25.37,78.74-9.33,9.91-19.03,13.87-27.31,11.13-7.77-2.57-11.63-7.98-11.16-15.65,1.07-17.65,24.78-46.43,61.42-75.16-.58-2.94-1.4-5.77-2.46-8.45-5.97-14.99-18.8-23.14-38.12-24.25-74.49-4.24-135.45,45.22-154.99,93.91l-2.07-.83c10.07-25.1,30.91-49.62,57.18-67.27,21.12-14.19,55.6-30.57,100-28.04,19.98,1.14,33.83,10.01,40.06,25.64.98,2.47,1.76,5.06,2.34,7.75,3.05-2.36,6.19-4.72,9.4-7.08,48.2-35.26,103.9-61.09,152.83-70.86,27.43-5.48,55.83-6.74,79.99-3.54,28.61,3.79,51.08,13.79,64.97,28.91.09.09.17.19.26.28,7.84-6.78,16.16-11.49,24.7-13.88,12.73-3.56,31.63-4.99,49.4,8.49,14.1,10.7,25.23,29.14,33.06,54.81,9.39,30.76,14.15,72.29,14.15,123.44Zm-121.48-169.66c-26.56,24.25-44.52,70.37-44.1,106.75.26,22.77,7.9,37.22,21.5,40.69,13.4,3.42,22.69-6.71,28.13-15.81,9.49-15.86,14.95-41.68,14.26-67.36-.72-26.77-7.9-49.98-19.79-64.27Zm-308.79,53.11c-35.16,27.81-58.62,56.17-59.63,72.8-.4,6.65,2.84,11.15,9.63,13.4,7.41,2.45,16.29-1.3,24.99-10.54,16.35-17.37,28.84-50.2,25.01-75.65Z"/>
      <path class="cls-16" d="m490.65,698.82l-119.75-56.19-25.62,8.31c-.21.06-.47.12-.78.12-1.11,0-2.08-.71-2.41-1.76-.21-.64-.15-1.32.15-1.93.31-.6.83-1.05,1.48-1.26l20.47-6.64-45.14-21.18c-1.27-.59-1.81-2.11-1.22-3.37.42-.89,1.32-1.46,2.3-1.46.37,0,.74.08,1.08.24l101.87,47.8-5.55-39.16c-.19-1.39.78-2.68,2.16-2.87.12-.02.24-.03.36-.03,1.26,0,2.33.94,2.5,2.19l6.02,42.44,20.61,9.67-8-56.79,1.76.82c1.09.51,2.16,1.03,3.23,1.55l.5.24,7.99,56.75,43.68,20.5-.45,2h-7.22Z"/>
      <g>
        <rect class="cls-14" x="553.82" y="118" width="3.79" height="31.95" transform="translate(494.01 702.26) rotate(-97.36)"/>
        <g class="cls-33">
          <path class="cls-4" d="m712.61,121.71c0-35.03-29.08-63.27-64.41-61.89-32.05,1.25-58.14,27.31-59.42,59.36-.52,13.05,3,25.25,9.42,35.44,9.37,14.9,14.73,31.97,14.73,49.58v.29c0,3.24,2.62,5.86,5.86,5.86h63.76c3.24,0,5.86-2.62,5.86-5.86v-.6c0-17.46,5.33-34.39,14.66-49.15,6.04-9.56,9.54-20.88,9.54-33.02Z"/>
        </g>
        <path class="cls-9" d="m619.84,210.34h61.65v31.67c0,3.22-2.61,5.83-5.83,5.83h-49.98c-3.22,0-5.83-2.61-5.83-5.83v-31.67h0Z"/>
        <path class="cls-10" d="m658.96,264.79h-16.59c-3.54,0-6.84-1.79-8.77-4.76l-7.93-12.19h49.98l-7.93,12.19c-1.93,2.97-5.23,4.76-8.77,4.76Z"/>
        <g>
          <rect class="cls-19" x="619.84" y="236.71" width="61.65" height="2.25"/>
          <rect class="cls-19" x="619.84" y="228.97" width="61.65" height="2.25"/>
          <rect class="cls-19" x="619.84" y="221.23" width="61.65" height="2.25"/>
        </g>
        <path class="cls-24" d="m649.93,78.6c5.34,6.87-3.25,14.98-15.68,24.64-12.43,9.66-24,17.22-29.34,10.35-5.34-6.87-2.26-22.25,10.17-31.91,12.43-9.66,29.51-9.94,34.85-3.08Z"/>
        <path class="cls-7" d="m650.92,259.91h-5.86c-1.61,0-3.35-.85-4.77-2.41l-8.78-9.66h32.95l-8.78,9.66c-1.42,1.56-3.16,2.41-4.77,2.41Z"/>
        <rect class="cls-14" x="648.78" width="3.78" height="41.93"/>
        <rect class="cls-14" x="595.78" y="15.06" width="3.79" height="41.93" transform="translate(70.42 319.78) rotate(-31.74)"/>
        <rect class="cls-14" x="559.91" y="59.04" width="3.79" height="38.34" transform="translate(244.54 548.4) rotate(-63.92)"/>
        <rect class="cls-14" x="573.09" y="163.25" width="3.78" height="28.51" transform="translate(773.27 745.65) rotate(-126.4)"/>
        <rect class="cls-14" x="701.77" y="15.06" width="3.78" height="41.93" transform="translate(1283.15 436.82) rotate(-148.26)"/>
        <rect class="cls-14" x="737.64" y="59.04" width="3.79" height="38.34" transform="translate(994.48 776.79) rotate(-116.09)"/>
        <rect class="cls-14" x="743.74" y="118" width="3.78" height="31.95" transform="translate(517.27 856.3) rotate(-82.64)"/>
        <rect class="cls-14" x="724.47" y="163.25" width="3.78" height="28.51" transform="translate(152.49 656.86) rotate(-53.6)"/>
        <path class="cls-17" d="m661.18,210.35h-3.13c0-20.87,1.94-37.98,5.18-45.79,2.19-5.27,4.4-9.62,6.53-13.83,3.98-7.84,7.42-14.62,8.79-23.98.61-4.17-1.15-7.19-2.31-7.45-.73-.15-1.82,1.02-2.68,3.9-.15.49-.3,1.09-.47,1.75-1.11,4.32-2.79,10.85-7.65,10.85-4.34,0-4.55-5.87-4.74-11.04-.1-2.73-.29-7.81-1.48-7.81-.92.43-1.93,5.2-2.46,7.77-1.19,5.7-2.32,11.08-6.1,11.08s-4.9-5.38-6.09-11.07c-.54-2.57-1.54-7.34-2.51-7.78-1.15,0-1.33,5.09-1.43,7.82-.19,5.18-.4,11.04-4.74,11.04-4.85,0-6.53-6.52-7.65-10.83-.17-.66-.33-1.26-.47-1.76-.86-2.91-2.08-4.03-2.68-3.91-1.16.26-2.92,3.28-2.31,7.45,1.37,9.36,4.81,16.13,8.79,23.98,2.14,4.21,4.35,8.56,6.53,13.83,3.24,7.81,5.18,24.92,5.18,45.79h-3.13c0-20.17-1.89-37.26-4.94-44.59-2.14-5.15-4.32-9.45-6.43-13.61-4.11-8.09-7.65-15.07-9.1-24.94-.76-5.21,1.41-10.22,4.74-10.96,1.28-.29,4.47-.26,6.35,6.07.16.53.32,1.17.51,1.87.76,2.97,2.19,8.48,4.61,8.48,1.32,0,1.5-5.02,1.61-8.03.19-5.33.39-10.83,4.6-10.83,3.38,0,4.38,4.76,5.53,10.27.54,2.57,1.8,8.58,3.03,8.58s2.49-6.02,3.03-8.59c1.15-5.51,2.15-10.26,5.53-10.26,4.21,0,4.41,5.51,4.6,10.83.11,3,.29,8.03,1.61,8.03,2.43,0,3.85-5.53,4.62-8.5.18-.7.34-1.33.5-1.85,1.88-6.33,5.06-6.33,6.36-6.07,3.33.74,5.49,5.75,4.73,10.96-1.45,9.87-4.99,16.85-9.1,24.94-2.11,4.16-4.29,8.46-6.43,13.61-3.05,7.33-4.94,24.42-4.94,44.59Z"/>
      </g>
      <path class="cls-26" d="m335.56,738.05c0,3.12-75.12,5.65-167.78,5.65S0,741.17,0,738.05s75.12-5.65,167.78-5.65,167.78,2.53,167.78,5.65Z"/>
      <g>
        <path class="cls-7" d="m159.85,670.39c0,37.37,30.29,67.66,67.66,67.66h13.84c37.37,0,67.66-30.29,67.66-67.66s-30.29-67.66-67.66-67.66h-13.84c-37.37,0-67.66,30.29-67.66,67.66Zm22.43,0c0-30.28,22.79-55.23,52.15-58.66,29.36,3.43,52.15,28.38,52.15,58.66s-22.79,55.23-52.15,58.66c-29.36-3.43-52.15-28.38-52.15-58.66Z"/>
        <circle class="cls-22" cx="234.43" cy="670.39" r="59.07" transform="translate(-104.36 46.21) rotate(-9.22)"/>
        <path class="cls-10" d="m173.69,670.39c0,37.37,30.29,67.66,67.66,67.66s67.66-30.29,67.66-67.66-30.29-67.66-67.66-67.66-67.66,30.29-67.66,67.66Zm8.59,0c0-32.62,26.45-59.07,59.07-59.07s59.07,26.45,59.07,59.07-26.45,59.07-59.07,59.07-59.07-26.45-59.07-59.07Z"/>
        <g>
          <polygon class="cls-29" points="22.01 736.98 172.04 695.02 168.08 680.27 17.19 718.98 22.01 736.98"/>
          <path class="cls-29" d="m165.73,688.81c1.1,4.1,3.93,6.88,6.31,6.22,2.36-.66,3.39-4.47,2.3-8.52-1.09-4.05-3.88-6.84-6.25-6.23-2.39.61-3.45,4.44-2.35,8.54Z"/>
          <path class="cls-29" d="m13.14,729.71c1.34,5.01,5.33,8.26,8.87,7.27,3.51-.98,5.27-5.77,3.95-10.71-1.32-4.93-5.24-8.2-8.77-7.3-3.57.91-5.39,5.72-4.05,10.73Z"/>
        </g>
        <path class="cls-24" d="m240,621.87c3.86,5.96-4.52,14.52-16.62,22.34-12.1,7.82-23.34,11.95-27.19,5.98-3.86-5.96,1.29-19.51,13.39-27.33,12.1-7.82,26.56-6.96,30.42-.99Z"/>
      </g>
      <g>
        <path class="cls-17" d="m529.84,449.35c.48-4.05,1.55-15.47,4.38-21.45-21.6-.03-43.43,1.02-63.04,2.82.76,3.9.97,8.57.97,12.47,0,8.28-.91,20.06-6.1,20.51,17.31,0,42.25,0,68.89,0-5.74-3.45-6.09-6.06-5.1-14.36Z"/>
        <path class="cls-17" d="m632.74,439.78c-18.21-6.62-45.08-10.13-74.17-11.36-3.44,6.03-15.09,22.12-15.28,24.29-.23,2.58,1.56,7.63,1.68,11,43.21,0,88.9,0,112.69.01,2.36-9.08-9.03-18.17-24.92-23.94Z"/>
      </g>
      <path class="cls-17" d="m626.93,522.21h0c41.6,0,145.69,0,198.65,0h4.96c-5.56,0-6.53-13.57-6.53-23.07,0-3.13.1-6.7.45-10.08-57.65-4.81-132.36-3.87-170.87,9.22-17,5.77-29.18,14.86-26.67,23.93Z"/>
      <path class="cls-23" d="m823.6,738.47l-6.27-27.46h-29.38l6.27,27.46h-4.95l-90.35-395.92h4.95l6.27,27.46h29.38l-6.27-27.46h4.95l90.35,395.92h-4.96Zm-7.39-32.39l-6.54-28.67h-29.38l6.54,28.67h29.38Zm-7.67-33.61l-6.54-28.67h-29.38l6.54,28.67h29.38Zm-7.67-33.61l-6.54-28.67h-29.38l6.54,28.67h29.38Zm-7.67-33.61l-6.54-28.67h-29.38l6.54,28.67h29.38Zm-7.67-33.61l-6.54-28.67h-29.38l6.54,28.67h29.38Zm-7.67-33.61l-6.54-28.67h-29.38l6.54,28.67h29.38Zm-7.67-33.61l-6.54-28.67h-29.38l6.54,28.67h29.38Zm-7.67-33.61l-6.54-28.67h-29.38l6.54,28.67h29.38Zm-7.67-33.61l-6.54-28.67h-29.38l6.54,28.67h29.38Zm-7.67-33.61l-6.54-28.67h-29.38l6.54,28.67h29.38Z"/>
      <g>
        <path class="cls-21" d="m470.55,458.36h194.58c.01-.3.02-.62,0-.93h-194.33c-.08.32-.17.63-.26.93Z"/>
        <path class="cls-21" d="m471.73,452.08h192.41c-.1-.31-.22-.62-.36-.93h-191.96c-.03.31-.06.62-.1.93Z"/>
        <path class="cls-21" d="m472.13,445.78h188.42c-.25-.31-.52-.62-.79-.92h-187.61c0,.3,0,.61-.01.92Z"/>
      </g>
      <g>
        <path class="cls-7" d="m558.36,300.7c1.14,5.37-.98,9.35,4.04,13.52,3.96,3.29,6.12,3.05,9.13,2.81,4.93-.4,8-3.93,9.48-6.27,2.46-3.92,2.98-9.28.94-13.66-1.91-4.09-5.8-6.92-10.22-9.39-4.5-2.52-8.52-5.03-7.74-9.81.66-4.07,1.05-7.03-.74-9.36-2.41-3.15-8.77-3.5-12.44-1.66-4.33,2.18-6.32,4.07-5.93,7.09.42,3.35,10.39,7.41,10.41,12.27,0,1.5-1.04,5.01-.07,6.21,2.07,2.58,2.49,5.18,3.14,8.26Z"/>
        <path class="cls-10" d="m528.44,475.5c1.3,4.04,6.49,4.66,8.36,3.82,4.51-2.05,2.14-6.46.39-19.12-1.24-8.93-3.12-20.87-5.5-34.47-.72-4.13.95-8.31,4.17-9.88,3.67-1.78,24.25-7.2,25.57-13.89,1.17-5.93-6.14-11.85-10.97-13.29-5.99-1.79-29.78-1.01-37.39,3.79-4.77,3.01-5.57,10.25-4.12,16.27,1.48,6.14,16.89,58.63,19.5,66.77Z"/>
        <path class="cls-19" d="m527.61,499.95c3.05.37,10.19-1.53,12.62-3.43,2.06-1.61,2.8-4.47,3.62-7.21,1.01-3.36,3.48-3.3,1.31-6.98-1.04-1.77-2.72-4.21-5.68-5.78-1.81-.96-4.8-1.71-6.45-1.23-2.66.78-4.37,3.48-3.82,7.82.42,3.35-1.85,8.55-3.23,10.68-1.88,2.91-1.02,5.8,1.62,6.12Z"/>
        <path class="cls-17" d="m513.02,499.1c3.61-1.19,5.7-4.59,8.16-7.74,2.39-3.06,6.1-7.01,5.48-11.84-.49-3.82-2.03-.64-4.6-.51-2.88.15-5.73-2.74-8.63-1.64-2.89,1.09-4.47,6.65-6.82,9.02-2.38,2.4-7.14,5.09-9.25,7.78-7.34,9.33,12.83,5.87,15.66,4.93Z"/>
        <path class="cls-7" d="m514.9,472.46c-1,4.28,1.6,7.7,4.89,8.32,2.79.53,5.58-.79,6.59-3.31,4-10.01,14.21-38.54,20.67-54.9,1.43-3.63,4.54-5.71,7.78-5.71h17.7c3.29,0,6.16-.18,8.05-1.3,9.72-5.76,10.37-19.06,3.45-27.66-3.99-4.96-38.86,2.76-43.61,4.08-3.17.89-6.61,4.06-8.13,7.12-2.75,5.55-14.92,62.74-17.39,73.35Z"/>
        <path class="cls-17" d="m541.31,373.22c.29,3.82.97,15.8,14.94,15.8,5.72,0,14.57-.03,20.08-.03,2.85,0,4.32-2.62,3.19-5.92-.98-2.86-6.75-11.46-3.39-21.46,2.52-7.49,1.88-28.15-.77-36.26-1.82-5.59-6.87-12.84-8.14-8.46-1.13,3.88-4.75,9.47-7.66,12.09-5.05,4.55-11.51,4.35-13.27.28-1.89-4.35-.57-7.58-2.21-10.88-1.46-2.93-6.56,4.88-7.29,7.55-1.98,7.23-3.02,14.49-3.12,22.92-.09,8.04,7.02,16.5,7.63,24.37Z"/>
        <path class="cls-3" d="m532.92,353.55c0,11.57,6.74,5.48,17,5.48s26.21,8.92,26.21-5.48c0-7.65-15.94-.43-26.21-.43s-17-8.03-17,.43Z"/>
        <path class="cls-25" d="m546.84,315c-2.87,1.54-4.06,3.83-4.2,6.55-.16,3.21.81,6.34,2.47,9.01,3.5,5.63,10.19,4.8,15.19.7,3.08-2.53,9.41-10.26,7.5-14.98-1.03-2.53-3.78-2.77-5.68-4.36-2.48-2.08-1.41-4.73-1.82-7.7,3.46.99,3.76-7.39,2.61-9.49-.25-.26-.56-.4-.93-.42-.09-.86.73-9.12-7.33-11.29-6.14-1.65-12.27,2.04-14.14,5.45-1.98,3.61-.25,7.98.11,11.77.1,4.44.94,6.54,2.38,9.64.91,1.96,2.47,3.73,3.84,5.12Z"/>
        <path class="cls-2" d="m547.8,315.93c-.26.29-.63.61-1.05.95-1.32,1.09-3.19,2.42-4.11,3.65-2.77,3.7-4.13,9.78-4.73,14.3-.8,6.01-.67,11.45-.26,17.32.26,3.8.25,10.18-5.38,8.57-1.34-.39-7.49-3.17-7.94-4.8-.44-1.61.26-3.21.55-4.62.51-2.48,1.5-9.42,1.92-11.73,2.34-12.92,5.45-19.28,13.61-22.87,1.9-.83,4.34-1.77,5.89-2.01.08,0,.15-.02.22-.03.21.23.6.76,1.28,1.28Z"/>
        <path class="cls-30" d="m546.29,314.83c0,1.37,1.73,6.96,5.51,6.96s7.65-7.99,6.9-9.12c-.8-1.21-2.26,4.48-6.9,4.48-4.76,0-5.51-3.69-5.51-2.32Z"/>
        <path class="cls-2" d="m599.52,368.17c-.32-4.06-5.19-19.19-7.38-25.33-3.78-10.61-7.39-18.77-10.72-21.5-.8-.92-1.67-1.73-2.65-2.4-3.73-2.56-9.86-5.02-15.33-6.48-2.14-.57,1.04,1.75,2.14,2.57,6.22,4.67,6.54,37.65,4.44,47.74-.76,3.63-1.97,7.23-1.79,11.02.27,5.48,5.27,12.15,8.52,17.6,1.83,3.07,8.57,14.77,12.2,9.97,4.07-5.38.85-12.05-.16-16.92-.37-1.79-.64-3.56-.86-5.34,2.79-.9,5.38-1.84,7.64-3.24,1.61-1,4.29-3.45,3.95-7.7Z"/>
        <path class="cls-25" d="m559.82,387.95c1.16-.34,26.89-9.14,29.58-10.54,4.73-2.45,2.83-8.96-1.87-10.11-1.9-.46-4.93.23-6.74,1.13-8.32,4.11-19.6,10.18-23.46,12.1-14.82,7.38-3.48,9.19,2.49,7.42Z"/>
        <g>
          <polygon class="cls-12" points="504.19 388.99 555.16 388.99 540.48 354.22 489.51 354.22 504.19 388.99"/>
          <path class="cls-27" d="m518.37,372.37c.81,1.93,3.04,3.49,4.97,3.49s2.85-1.56,2.04-3.49c-.81-1.93-3.04-3.49-4.97-3.49s-2.85,1.56-2.04,3.49Z"/>
          <polygon class="cls-5" points="556.12 388.99 555.16 388.99 540.43 354.22 541.39 354.22 556.12 388.99"/>
          <rect class="cls-1" x="506.51" y="388.99" width="49.61" height="1.89" transform="translate(1062.63 779.87) rotate(180)"/>
          <rect class="cls-5" x="556.12" y="388.99" width="20.21" height="1.89"/>
        </g>
        <path class="cls-10" d="m565.25,290.41c-.06-3.46-1.76-7.91-4.62-9.99-3.23-2.34-9.17-4.79-10.01-6.4-.97-1.85-.98-4.82,4.42-6.97,1.46-.58.17-.99-1.57-.56-2.27.56-5.57,1.85-7.1,3.43-3.53,3.68-.67,6.36.59,7.4.38.32.76,1.29-.47,1.7-2.16.73-4.78,1.9-6.86,3.43-4.95,3.65-6.62,8.19-4.87,13.96.9,2.96,3.51,7.52,5.52,8.14.57.17.7-.37.63-1.77-.16-3.32.08-7.34,6.85-11.13,2.97-1.66,7.61-2.05,9.45,4.16.35,1.18,1.78,5.11,3.1,4.09.44-.34.06-3.06,1.5-3.7,1.4-.63,1.69,1.34,2.6.29.4-.46.87-4.39.84-6.1Z"/>
      </g>
      <path class="cls-20" d="m971.87,469.32c-.73-1.16-1.98-1.85-3.35-1.85-.75,0-1.48.21-2.11.61-13.4,8.44-25.89,19.46-26.58,42.68-.25,8.26.76,15.65,1.73,22.8,1.98,14.55,3.68,27.12-6.27,42.28-5.53,8.42-14.51,14.92-23.19,21.21-12.84,9.3-26.11,18.92-30.17,35.38-3.3,13.38-.49,27.72,2.22,41.59,1.66,8.46,3.26,16.65,3.16,23.74h7.95c.07-7.82-1.61-16.41-3.34-25.26-2.55-13.02-5.19-26.49-2.31-38.18,3.36-13.64,14.91-22.01,27.13-30.86,9.26-6.71,18.84-13.65,25.16-23.28,11.58-17.64,9.6-32.24,7.5-47.71-.93-6.82-1.88-13.88-1.66-21.48.66-22.21,15.12-31.32,22.89-36.22.89-.56,1.52-1.44,1.75-2.47.23-1.03.05-2.09-.51-2.99Z"/>
    </g>
  </g>
</svg>