<?xml version="1.0" encoding="UTF-8"?>
<svg xmlns="http://www.w3.org/2000/svg" xmlns:xlink="http://www.w3.org/1999/xlink" viewBox="0 0 2558 1080">
  <defs>
    <style>
      .cls-1 {
        fill: #d6e7fe;
        mix-blend-mode: multiply;
      }

      .cls-1, .cls-2, .cls-3 {
        opacity: .5;
      }

      .cls-1, .cls-3 {
        stroke-width: 0px;
      }

      .cls-4 {
        isolation: isolate;
      }

      .cls-3 {
        fill: none;
      }

      .cls-5 {
        clip-path: url(#clippath);
      }
    </style>
    <clipPath id="clippath">
      <rect class="cls-3" x="0" y="0" width="2558" height="1080" transform="translate(2558 1080) rotate(-180)"/>
    </clipPath>
  </defs>
  <g class="cls-4">
    <g id="Layer_2" data-name="Layer 2">
      <g id="Layer_1-2" data-name="Layer 1">
        <g class="cls-2">
          <g class="cls-5">
            <path class="cls-1" d="m2196.77,529.03c-121.89,20.67-229.91,66.43-344.42,100.87-114.51,34.44-246.43,57.72-365.36,30.58-101.06-23.06-175.72-78.33-253.65-126.65-77.93-48.31-174.2-93.78-280.87-88.8-89.83,4.2-166.87,43.7-228.14,87.25-61.27,43.54-113.85,93.26-186.14,128.69-72.29,35.44-173.03,54.22-252.91,26.78-74.16-25.47-108.73-81.42-146.31-130.69-37.58-49.27-96.89-101.1-180.45-102.89-69.53-1.49-130.68,34.67-158.06,76.86-27.38,42.19-28.15,89.52-28.5,135.41-1.34,178.97-2.69,357.94-4.03,536.91,910.72,5.58,1821.62-.61,2731.97-18.58,71.19-1.4,149.12-4.62,201.29-36.6,57.33-35.14,63.79-92.53,66.44-144.13,3.33-64.67,3.41-129.83,11.17-194.34,4.58-38.11,20.03-78.07,13.99-116.39-14.51-92.06-192.22-143.43-310.22-163.24-93.3-15.66-192.36-16.85-285.81-1.05Z"/>
            <path class="cls-1" d="m2544.47,622.3c-69.64-18.09-149.29-8.15-218.2,11.11-68.91,19.27-131.46,47.34-199.95,67.24-68.49,19.9-147.3,31.31-218.03,15.17-67.51-15.4-116.73-52.97-173.5-81.57-146.29-73.71-357.91-85.87-521.31-29.95-79.23,27.11-145.78,68.02-223.16,97.37-77.38,29.35-174.74,46.32-255.31,20.98-69.49-21.86-110.79-69.86-172.53-100.21-108.2-53.19-279-38.5-362.91,31.21-41.51,34.49-62.18,78.54-105.84,111.85-43.66,33.31-128.45,51.6-175.34,20.26,5.82,108.66,11.65,217.32,17.47,325.99,914.98,100.7,1851.76,114.76,2772.73,41.61,6.63-.87-51.08-300.97-55.24-328.73-5.34-35.59,6.85-71.7-.94-106.69-6.59-29.58-49.5-95.65-107.93-95.65Z"/>
            <path class="cls-1" d="m2233.41,766.22c-174.06,18.82-338.23,66.23-510.9,89.99-172.67,23.75-367.91,20.05-505.71-52.58-77.37-40.78-129.8-99.79-210.02-138.1-135.39-64.65-341.98-52.46-457.84,27-64.81,44.45-100.8,104.59-166.56,148.44-128.33,85.56-365.97,82.72-489.52-5.85-3.96,106.42-7.91,212.84-11.87,319.25,922.85,19.86,1847.55,2.14,2767.1-53.02,14.59-60.85,27.83-121.92,43.94-182.6,9-33.89,27.55-67.85-10.35-96.55-107.01-81.04-309.92-55.97-448.27-55.97Z"/>
            <path class="cls-1" d="m2440.25,659.51c-78.51,71.63-140.3,151.69-231.81,216.25-91.51,64.57-224.4,113.14-356.04,96.67-109.01-13.64-193.97-67.77-279.32-114.54-85.35-46.77-190.92-90.41-299.97-76.91-116.98,14.48-191.68,87.96-286.65,135.29-156.44,77.97-389.34,80.93-550.22,7-46.49-21.36-87.07-48.27-136.04-67.08-48.97-18.8-110.97-28.65-162.18-12.65-43.32,13.53-70.16,42.44-91.97,70.6-21.8,28.16-42.34,58.21-79.73,78-37.38,19.79-98.01,24.87-130.54,1.65.14,63.25.27,126.49.41,189.74,962.23,11.42,1924.86,8.25,2886.87-9.49.5-124.08,1.01-248.15,1.51-372.23.2-50.29,39.27-251.94-96.78-254.39-71.42-1.28-151.21,78.93-187.55,112.08Z"/>
          </g>
        </g>
      </g>
    </g>
  </g>
</svg>