<?xml version="1.0" encoding="UTF-8"?>
<svg id="Layer_2" data-name="Layer 2" xmlns="http://www.w3.org/2000/svg" viewBox="0 0 1080 1080">
  <defs>
    <style>
      .cls-1 {
        fill: #1d3557;
      }

      .cls-1, .cls-2, .cls-3 {
        stroke-width: 0px;
      }

      .cls-2 {
        fill: none;
      }

      .cls-3 {
        fill: #e63946;
      }
    </style>
  </defs>
  <g id="Layer_1-2" data-name="Layer 1">
    <g>
      <path class="cls-1" d="M304.78,502.45h150.8v233c-22.28,8.87-45,15.43-68.16,19.66-23.17,4.24-46.87,6.36-71.11,6.36-35.48,0-65.6-8.67-90.33-26.02-24.74-17.34-43.61-42.68-56.62-75.99-13.01-33.31-19.52-73.72-19.52-121.23s7.39-85.94,22.18-118.87c14.78-32.92,36.07-58.2,63.87-75.84,27.79-17.64,61.3-26.46,100.53-26.46,22.27,0,43.02,2.56,62.24,7.69,19.22,5.13,36.02,11.63,50.42,19.52l-28.68,84.27c-11.83-7.49-24.5-13.2-38-17.15-13.5-3.94-27.65-5.91-42.43-5.91-18.33,0-33.66,5.28-45.98,15.82-12.32,10.55-21.59,25.87-27.79,45.98s-9.31,44.75-9.31,73.92,2.46,52.34,7.39,71.85c4.93,19.52,12.27,34.3,22.03,44.35,9.76,10.05,21.83,15.08,36.22,15.08,5.32,0,10.69-.44,16.12-1.33,5.42-.89,10.69-2.02,15.82-3.4v-79.25h-49.68v-86.05Z"/>
      <path class="cls-1" d="M678.83,405.46c-10.05,0-19.03,3.1-26.91,9.31-7.89,6.21-14.49,15.18-19.81,26.91-5.32,11.73-9.37,25.97-12.12,42.73-2.76,16.76-4.14,35.68-4.14,56.77,0,29.18,2.51,53.52,7.54,73.04,5.03,19.52,12.57,34.11,22.62,43.76,10.05,9.66,22.67,14.49,37.85,14.49,13.99,0,27.45-2.66,40.36-7.98,12.91-5.32,25.87-11.73,38.88-19.22v92.26c-13.8,8.08-28.73,14.1-44.8,18.04-16.07,3.94-33.07,5.91-51.01,5.91-34.3,0-63.23-8.47-86.78-25.43-23.56-16.95-41.4-41.89-53.52-74.81-12.12-32.92-18.19-73.13-18.19-120.64,0-33.31,3.7-63.67,11.09-91.07,7.39-27.4,18.08-50.96,32.08-70.67,13.99-19.71,30.9-34.94,50.71-45.68,19.81-10.74,42.23-16.12,67.27-16.12,19.12,0,37.5,2.47,55.15,7.39,17.64,4.93,35.14,12.62,52.48,23.06l-27.2,84.57c-11.43-8.08-22.97-14.53-34.6-19.37-11.63-4.83-23.95-7.24-36.96-7.24Z"/>
      <path class="cls-3" d="M819.28,706.47c0-18.13,4.88-32.13,14.64-41.99,9.76-9.86,23.7-14.78,41.84-14.78s31,4.93,40.36,14.78c9.36,9.86,14.05,23.85,14.05,41.99s-4.78,31.84-14.34,41.69c-9.56,9.86-22.92,14.78-40.07,14.78s-31.1-4.93-41.25-14.78c-10.16-9.86-15.23-23.75-15.23-41.69Z"/>
    </g>
    <rect class="cls-2" width="1080" height="1080"/>
  </g>
</svg>