<?xml version="1.0" encoding="utf-8"?>
<!-- Generator: Adobe Illustrator 28.1.0, SVG Export Plug-In . SVG Version: 6.00 Build 0)  -->
<svg version="1.1" id="Layer_2_00000083079625253744780460000009295095312627657910_"
	 xmlns="http://www.w3.org/2000/svg" xmlns:xlink="http://www.w3.org/1999/xlink" x="0px" y="0px" viewBox="0 0 1080 1080"
	 style="enable-background:new 0 0 1080 1080;" xml:space="preserve">
<style type="text/css">
	.st0{fill:#1D3557;}
	.st1{fill:none;}
</style>
<g id="Layer_1-2">
	<path class="st0" d="M483.4,365.3v145.4c0,10.5,0,21.3-0.1,32.5v0.9c0,148.2-17.6,293.3-214.7,293.3c-15.1,0-29.2-0.8-42.4-2.4
		c53.3-34.1,88.4-93,88.4-160c0-4.8-0.1-9.7-0.6-14.5H188.3c-67.7,0-122.6-55-122.6-122.6V365.3c0-67.7,55-122.6,122.6-122.6h172.4
		C428.4,242.6,483.4,297.6,483.4,365.3L483.4,365.3z M891.7,242.6H719.2c-67.7,0-122.6,55-122.6,122.6v172.4
		c0,67.7,55,122.6,122.6,122.6h125.7c0.5,4.8,0.6,9.7,0.6,14.5c0,67.1-35.1,126-88.4,160c13.2,1.7,27.2,2.4,42.4,2.4
		c197.1,0,214.7-145.1,214.7-293.3v-0.9c0.2-11.2,0.2-22.1,0.2-32.5V365.3C1014.3,297.6,959.4,242.7,891.7,242.6L891.7,242.6z"/>
	<rect class="st1" width="1080" height="1080"/>
</g>
</svg>
